Patient4_TMGait_0pt2_01_left_04_GRF.mot
version=1
nRows=33
nColumns=19
inDegrees=no
endheader
time	F1x	F1y	F1z	M1x	M1y	M1z	F2x	F2y	F2z	M2x	M2y	M2z	EC1x	EC1y	EC1z	EC2x	EC2y	EC2z
8.14	-7.1357	7.111	2.2707	-1.8397	-6.2116	5.0397	-24.3654	806.5292	-35.4028	287.2864	47.0208	886.5348	-0.0592	0.0182	-0.0073	-0.0462	0.0165	0.9585
8.1621	-4.8326	5.1349	1.636	-1.3692	-4.307	3.779	-23.6284	810.9538	-36.4141	289.0862	47.8152	887.897	-0.0592	0.0182	-0.0073	-0.0462	0.0165	0.9585
8.1843	-2.854	3.4458	1.0937	-0.96844	-2.667	2.7144	-22.9595	814.6075	-37.4674	290.5233	48.5587	887.981	-0.0592	0.0182	-0.0073	-0.0462	0.0165	0.9585
8.2064	-1.3326	2.1547	0.67876	-0.66296	-1.4047	1.9113	-22.2911	816.8267	-38.4331	291.3712	49.0944	886.182	-0.0592	0.0182	-0.0073	-0.0462	0.0165	0.9585
8.2286	-0.27526	1.2621	0.392	-0.45067	-0.52796	1.3588	-21.4458	817.4998	-39.1456	291.6484	49.2121	882.4247	-0.0592	0.0182	-0.0073	-0.0462	0.0165	0.9585
8.2507	0.37762	0.69865	0.21308	-0.31296	0.015926	1.0019	-20.2469	816.9321	-39.4394	291.541	48.7133	877.0573	-0.0592	0.0182	-0.0073	-0.0462	0.0165	0.9585
8.2729	0.71116	0.36139	0.11496	-0.22283	0.30097	0.76559	-18.5966	815.5396	-39.2087	291.2541	47.4884	870.5591	-0.0592	0.0182	-0.0073	-0.0462	0.0165	0.9585
8.295	0.81224	0.13717	0.073594	-0.15043	0.39818	0.56739	-16.5058	813.5794	-38.4561	290.892	45.566	863.2822	-0.0592	0.0182	-0.0073	-0.0462	0.0165	0.9585
8.3171	0.75928	-0.084748	0.069016	-0.065916	0.37045	0.32548	-14.0891	811.025	-37.2905	290.4118	43.1047	855.3389	-0.0592	0.0182	-0.0073	-0.0462	0.0165	0.9585
8.3393	0.61409	-0.40136	0.084243	0.059364	0.27088	-0.04038	-11.5461	807.602	-35.9004	289.6509	40.3653	846.6394	-0.0592	0.0182	-0.0073	-0.0462	0.0165	0.9585
8.3614	0.42142	-0.89592	0.10399	0.25061	0.14219	-0.60272	-9.1173	802.9422	-34.509	288.4045	37.6615	837.0194	-0.0592	0.0182	-0.0073	-0.0462	0.0165	0.9585
8.3836	0.21525	-1.6205	0.11387	0.5247	0.018992	-1.4109	-7.0104	796.8096	-33.3081	286.5271	35.2748	826.4085	-0.0592	0.0182	-0.0073	-0.0462	0.0165	0.9585
8.4057	0.026681	-2.5754	0.10069	0.88132	-0.06893	-2.4621	-5.3511	789.282	-32.4102	284.0132	33.3854	814.9577	-0.0592	0.0182	-0.0073	-0.0462	0.0165	0.9585
8.4279	-0.11314	-3.688	0.051331	1.2938	-0.09305	-3.6805	-4.1311	780.7991	-31.8299	281.023	32.0308	803.0573	-0.0592	0.0182	-0.0073	-0.0462	0.0165	0.9585
8.45	-0.16459	-4.7803	-0.047539	1.6958	-0.022106	-4.8831	-3.2059	772.0365	-31.5027	277.8365	31.1171	791.207	-0.0592	0.0182	-0.0073	-0.0462	0.0165	0.9585
8.4721	-0.06906	-5.5265	-0.21001	1.9661	0.18263	-5.7229	-2.3435	763.7114	-31.3154	274.772	30.4606	779.865	-0.0592	0.0182	-0.0073	-0.0462	0.0165	0.9585
8.4943	0.2468	-5.4129	-0.44705	1.9144	0.55957	-5.6434	-1.2933	756.4149	-31.1393	272.1071	29.843	769.3397	-0.0592	0.0182	-0.0073	-0.0462	0.0165	0.9585
8.5164	0.86629	-3.7094	-0.75851	1.2707	1.1393	-3.8551	0.15648	750.5063	-30.8661	270.021	29.0694	759.751	-0.0592	0.0182	-0.0073	-0.0462	0.0165	0.9585
8.5386	1.8745	0.51902	-1.1271	-0.30848	1.9344	0.65179	2.1108	745.9217	-30.4475	268.5102	28.0316	750.9035	-0.0592	0.0182	-0.0073	-0.0462	0.0165	0.9585
8.5607	3.3303	8.3422	-1.5042	-3.2122	2.9121	9.0286	4.523	741.9574	-29.9014	267.311	26.7329	742.1117	-0.0592	0.0182	-0.0073	-0.0462	0.0165	0.9585
8.5829	5.2265	20.8089	-1.7935	-7.8163	3.9651	22.4026	7.2072	737.2297	-29.2816	265.8931	25.2625	732.151	-0.0592	0.0182	-0.0073	-0.0462	0.0165	0.9585
8.605	7.4376	38.6459	-1.8379	-14.374	4.8766	41.5532	9.8749	729.8858	-28.6272	263.5487	23.7374	719.4378	-0.0592	0.0182	-0.0073	-0.0462	0.0165	0.9585
8.6271	9.6432	61.802	-1.4107	-22.8485	5.2823	66.4231	12.208	718.0461	-27.932	259.5651	22.2484	702.4167	-0.0592	0.0182	-0.0073	-0.0462	0.0165	0.9585
8.6493	11.2736	89.0008	-0.24216	-32.7526	4.6772	95.6425	13.9506	700.398	-27.1607	253.446	20.8478	680.0902	-0.0592	0.0182	-0.0073	-0.0462	0.0165	0.9585
8.6714	11.9491	118.0704	1.8066	-43.2805	2.7718	126.8733	14.9863	676.7642	-26.3012	245.1152	19.5761	652.5218	-0.0592	0.0182	-0.0073	-0.0462	0.0165	0.9585
8.6936	11.6912	147.3658	4.473	-53.8452	-0.12965	158.3136	15.3703	648.3079	-25.386	234.9893	18.4684	620.9897	-0.0592	0.0182	-0.0073	-0.0462	0.0165	0.9585
8.7157	10.7103	176.4756	7.3311	-64.3225	-3.4738	189.4821	15.2606	617.0839	-24.4517	223.8155	17.5339	587.5571	-0.0592	0.0182	-0.0073	-0.0462	0.0165	0.9585
8.7379	9.2701	205.532	10.0595	-74.7819	-6.8143	220.5001	14.7796	585.2114	-23.5301	212.3644	16.7868	554.3056	-0.0592	0.0182	-0.0073	-0.0462	0.0165	0.9585
8.76	7.6497	234.4798	12.4471	-85.2148	-9.8287	251.2876	13.93	554.2724	-22.6788	201.2075	16.2974	522.7845	-0.0592	0.0182	-0.0073	-0.0462	0.0165	0.9585
8.7821	6.1261	262.8652	14.4609	-95.4526	-12.3984	281.339	12.632	525.2337	-21.9583	190.6927	16.1556	493.93	-0.0592	0.0182	-0.0073	-0.0462	0.0165	0.9585
8.8043	4.8882	289.9547	16.1951	-105.215	-14.5747	309.8622	10.8303	498.6394	-21.3816	181.022	16.3906	468.2139	-0.0592	0.0182	-0.0073	-0.0462	0.0165	0.9585
8.8264	4.0001	315.0818	17.755	-114.2441	-16.4622	336.1514	8.5727	474.7836	-20.9165	172.3132	16.9461	445.7922	-0.0592	0.0182	-0.0073	-0.0462	0.0165	0.9585
8.8486	3.453	337.9421	19.1973	-122.4171	-18.1366	359.8861	6.0423	453.671	-20.5284	164.5825	17.7065	426.4748	-0.0592	0.0182	-0.0073	-0.0462	0.0165	0.9585
